<svg width="220" height="56" viewBox="0 0 220 56" fill="none" xmlns="http://www.w3.org/2000/svg">
<path d="M48 21.9123C48.1511 22.5045 48.459 23.0451 48.8912 23.4773C49.3233 23.9095 49.8639 24.2173 50.4561 24.3684H54.3158L54.4912 24.4035V34.0877H56.8772V24.4386L57.1228 24.3333H60.9825C61.573 24.1788 62.1118 23.8698 62.5435 23.4382C62.9751 23.0065 63.2841 22.4678 63.4386 21.8772H48V21.9123ZM131.719 21.9123H129.333V34.1228H140.281C140.799 33.9267 141.262 33.6068 141.629 33.191C141.996 32.7752 142.256 32.276 142.386 31.7368H131.754V21.8772L131.719 21.9123ZM113.368 24.2982C114.632 23.9474 115.684 22.9649 115.965 21.8772L102.596 21.9123V29.1404H113.509V31.6667H104.947C104.294 31.8367 103.684 32.1436 103.157 32.567C102.631 32.9904 102.201 33.5207 101.895 34.1228H115.895V26.7544H104.947V24.2982H113.368ZM154.14 34.1228H156.491V29.2105H165.123V34.1228H167.474V26.7544H154.14V34.1228ZM77.9298 24.3333H87.0526C87.653 24.1913 88.2028 23.8872 88.6421 23.454C89.0814 23.0209 89.3933 22.4755 89.5439 21.8772H75.4737C75.6213 22.4711 75.928 23.0135 76.3607 23.4463C76.7935 23.879 77.3359 24.1857 77.9298 24.3333ZM77.9298 29.1754H87.0526C87.653 29.0334 88.2028 28.7293 88.6421 28.2962C89.0814 27.863 89.3933 27.3176 89.5439 26.7193H75.4737C75.6213 27.3132 75.928 27.8556 76.3607 28.2884C76.7935 28.7211 77.3359 29.0278 77.9298 29.1754ZM77.9298 34.1228H87.0526C87.653 33.9808 88.2028 33.6766 88.6421 33.2435C89.0814 32.8104 89.3933 32.2649 89.5439 31.6667H75.4737C75.6213 32.2606 75.928 32.803 76.3607 33.2357C76.7935 33.6685 77.3359 33.9752 77.9298 34.1228ZM156.246 24.3333H165.368C165.962 24.1857 166.505 23.879 166.938 23.4463C167.37 23.0135 167.677 22.4711 167.825 21.8772L153.789 21.8772C153.937 22.4711 154.244 23.0135 154.677 23.4463C155.109 23.879 155.652 24.1857 156.246 24.3333Z" fill="white"/>
</svg>
